<?xml version="1.0" encoding="UTF-8" standalone="no"?>
<svg
   xmlns:dc="http://purl.org/dc/elements/1.1/"
   xmlns:cc="http://creativecommons.org/ns#"
   xmlns:rdf="http://www.w3.org/1999/02/22-rdf-syntax-ns#"
   xmlns:svg="http://www.w3.org/2000/svg"
   xmlns="http://www.w3.org/2000/svg"
   xmlns:xlink="http://www.w3.org/1999/xlink"
   xmlns:sodipodi="http://sodipodi.sourceforge.net/DTD/sodipodi-0.dtd"
   xmlns:inkscape="http://www.inkscape.org/namespaces/inkscape"
   version="1.1"
   width="12.135555mm"
   height="12.135555mm"
   viewBox="77325 -106675 12135.555 12135.555"
   id="logo-F.Cu"
   inkscape:version="1.0.1 (3bc2e813f5, 2020-09-07)"
   sodipodi:docname="logo7_white.svg"
   style="fill-rule:evenodd;stroke-width:0;stroke-linecap:round;stroke-linejoin:round">
  <metadata
     id="metadata72">
    <rdf:RDF>
      <cc:Work
         rdf:about="">
        <dc:format>image/svg+xml</dc:format>
        <dc:type
           rdf:resource="http://purl.org/dc/dcmitype/StillImage" />
        <dc:title></dc:title>
      </cc:Work>
    </rdf:RDF>
  </metadata>
  <sodipodi:namedview
     pagecolor="#ffffff"
     bordercolor="#666666"
     borderopacity="1"
     objecttolerance="10"
     gridtolerance="10"
     guidetolerance="10"
     inkscape:pageopacity="0"
     inkscape:pageshadow="2"
     inkscape:window-width="1924"
     inkscape:window-height="1513"
     id="namedview70"
     showgrid="false"
     fit-margin-top="0"
     fit-margin-left="0"
     fit-margin-right="0"
     fit-margin-bottom="0"
     inkscape:zoom="30.447746"
     inkscape:cx="11.644691"
     inkscape:cy="15.978926"
     inkscape:window-x="540"
     inkscape:window-y="209"
     inkscape:window-maximized="0"
     inkscape:current-layer="layer1"
     inkscape:document-rotation="0" />
  <defs
     id="defs3">
    <rect
       x="-173.99001"
       y="-574.03998"
       width="347.98001"
       height="1148.08"
       rx="173.99001"
       ry="173.99001"
       id="logo-F.Cu_pad-11" />
    <rect
       x="-574.03998"
       y="-173.99001"
       width="1148.08"
       height="347.98001"
       rx="173.99001"
       ry="173.99001"
       id="logo-F.Cu_pad-12" />
    <circle
       cx="0"
       cy="0"
       r="375"
       id="logo-F.Cu_pad-13" />
  </defs>
  <g
     inkscape:groupmode="layer"
     id="layer1"
     inkscape:label="background"
     transform="translate(1632.5513,1619.981)" />
  <g
     inkscape:groupmode="layer"
     id="layer2"
     inkscape:label="foreground"
     transform="translate(1632.5513,1619.981)">
    <g
       style="fill:currentColor;stroke:currentColor"
       transform="matrix(1.0000008,0,0,-1.0000008,48.777809,-204618.79)"
       id="g8">
      <use
         height="100%"
         width="100%"
         xlink:href="#logo-F.Cu_pad-11"
         x="82997.938"
         y="-99912.398"
         id="use10"
         style="fill:#ffffff;fill-opacity:1;stroke:#ffffff;stroke-opacity:1" />
      <use
         height="100%"
         width="100%"
         xlink:href="#logo-F.Cu_pad-11"
         x="82347.703"
         y="-99912.398"
         id="use12"
         style="fill:#ffffff;fill-opacity:1;stroke:#ffffff;stroke-opacity:1" />
      <use
         height="100%"
         width="100%"
         xlink:href="#logo-F.Cu_pad-11"
         x="81700"
         y="-99912.398"
         id="use14"
         style="fill:#ffffff;fill-opacity:1;stroke:#ffffff;stroke-opacity:1" />
      <use
         height="100%"
         width="100%"
         xlink:href="#logo-F.Cu_pad-11"
         x="81052.297"
         y="-99912.398"
         id="use16"
         style="fill:#ffffff;fill-opacity:1;stroke:#ffffff;stroke-opacity:1" />
      <use
         height="100%"
         width="100%"
         xlink:href="#logo-F.Cu_pad-11"
         x="80402.062"
         y="-99912.398"
         id="use18"
         style="fill:#ffffff;fill-opacity:1;stroke:#ffffff;stroke-opacity:1" />
      <use
         height="100%"
         width="100%"
         xlink:href="#logo-F.Cu_pad-12"
         x="79312.398"
         y="-101002.06"
         id="use20"
         style="fill:#ffffff;fill-opacity:1;stroke:#ffffff;stroke-opacity:1" />
      <use
         height="100%"
         width="100%"
         xlink:href="#logo-F.Cu_pad-12"
         x="79312.398"
         y="-101652.3"
         id="use22"
         style="fill:#ffffff;fill-opacity:1;stroke:#ffffff;stroke-opacity:1" />
      <use
         height="100%"
         width="100%"
         xlink:href="#logo-F.Cu_pad-12"
         x="79312.398"
         y="-102300"
         id="use24"
         style="fill:#ffffff;fill-opacity:1;stroke:#ffffff;stroke-opacity:1" />
      <use
         height="100%"
         width="100%"
         xlink:href="#logo-F.Cu_pad-12"
         x="79312.398"
         y="-102947.7"
         id="use26"
         style="fill:#ffffff;fill-opacity:1;stroke:#ffffff;stroke-opacity:1" />
      <use
         height="100%"
         width="100%"
         xlink:href="#logo-F.Cu_pad-12"
         x="79312.398"
         y="-103597.94"
         id="use28"
         style="fill:#ffffff;fill-opacity:1;stroke:#ffffff;stroke-opacity:1" />
      <use
         height="100%"
         width="100%"
         xlink:href="#logo-F.Cu_pad-11"
         x="80402.062"
         y="-104687.6"
         id="use30"
         style="fill:#ffffff;fill-opacity:1;stroke:#ffffff;stroke-opacity:1" />
      <use
         height="100%"
         width="100%"
         xlink:href="#logo-F.Cu_pad-11"
         x="81052.297"
         y="-104687.6"
         id="use32"
         style="fill:#ffffff;fill-opacity:1;stroke:#ffffff;stroke-opacity:1" />
      <use
         height="100%"
         width="100%"
         xlink:href="#logo-F.Cu_pad-11"
         x="81700"
         y="-104687.6"
         id="use34"
         style="fill:#ffffff;fill-opacity:1;stroke:#ffffff;stroke-opacity:1" />
      <use
         height="100%"
         width="100%"
         xlink:href="#logo-F.Cu_pad-11"
         x="82347.703"
         y="-104687.6"
         id="use36"
         style="fill:#ffffff;fill-opacity:1;stroke:#ffffff;stroke-opacity:1" />
      <use
         height="100%"
         width="100%"
         xlink:href="#logo-F.Cu_pad-11"
         x="82997.938"
         y="-104687.6"
         id="use38"
         style="fill:#ffffff;fill-opacity:1;stroke:#ffffff;stroke-opacity:1" />
      <use
         height="100%"
         width="100%"
         xlink:href="#logo-F.Cu_pad-12"
         x="84087.602"
         y="-103597.94"
         id="use40"
         style="fill:#ffffff;fill-opacity:1;stroke:#ffffff;stroke-opacity:1" />
      <use
         height="100%"
         width="100%"
         xlink:href="#logo-F.Cu_pad-12"
         x="84087.602"
         y="-102947.7"
         id="use42"
         style="fill:#ffffff;fill-opacity:1;stroke:#ffffff;stroke-opacity:1" />
      <use
         height="100%"
         width="100%"
         xlink:href="#logo-F.Cu_pad-12"
         x="84087.602"
         y="-102300"
         id="use44"
         style="fill:#ffffff;fill-opacity:1;stroke:#ffffff;stroke-opacity:1" />
      <use
         height="100%"
         width="100%"
         xlink:href="#logo-F.Cu_pad-12"
         x="84087.602"
         y="-101652.3"
         id="use46"
         style="fill:#ffffff;fill-opacity:1;stroke:#ffffff;stroke-opacity:1" />
      <use
         height="100%"
         width="100%"
         xlink:href="#logo-F.Cu_pad-12"
         x="84087.602"
         y="-101002.06"
         id="use48"
         style="fill:#ffffff;fill-opacity:1;stroke:#ffffff;stroke-opacity:1" />
      <path
         inkscape:connector-curvature="0"
         d="m 83064.703,-100800.72 14.561,-2.16 14.279,-3.58 13.86,-4.96 13.307,-6.29 12.626,-7.57 11.823,-8.77 10.907,-9.88 9.886,-10.91 8.768,-11.82 7.568,-12.63 6.294,-13.31 4.959,-13.86 3.577,-14.28 2.16,-14.56 0.722,-14.7 0,-2700 -0.722,-14.7 -2.16,-14.56 -3.577,-14.28 -4.959,-13.86 -6.294,-13.31 -7.568,-12.63 -8.768,-11.82 -9.886,-10.91 -10.907,-9.88 -11.823,-8.77 -12.626,-7.57 -13.307,-6.29 -13.86,-4.96 -14.279,-3.58 -14.561,-2.16 -14.703,-0.72 -2700,0 -14.703,0.72 -14.561,2.16 -14.279,3.58 -13.86,4.96 -13.307,6.29 -12.626,7.57 -11.823,8.77 -10.907,9.88 -9.886,10.91 -8.768,11.82 -7.568,12.63 -6.294,13.31 -4.959,13.86 -3.577,14.28 -2.16,14.56 -0.722,14.7 0,2700 0.722,14.7 2.16,14.56 3.577,14.28 4.959,13.86 6.294,13.31 7.568,12.63 8.768,11.82 9.886,10.91 10.907,9.88 11.823,8.77 12.626,7.57 13.307,6.29 13.86,4.96 14.279,3.58 14.561,2.16 14.703,0.72 2700,0 14.703,-0.72 0,0"
         id="path50"
         style="fill:#ffffff;fill-opacity:1;stroke:#ffffff;stroke-opacity:1" />
      <use
         height="100%"
         width="100%"
         xlink:href="#logo-F.Cu_pad-13"
         x="83200"
         y="-98600"
         id="use52"
         style="fill:#ffffff;fill-opacity:1;stroke:#ffffff;stroke-opacity:1" />
      <use
         height="100%"
         width="100%"
         xlink:href="#logo-F.Cu_pad-13"
         x="85000"
         y="-98300"
         id="use54"
         style="fill:#ffffff;fill-opacity:1;stroke:#ffffff;stroke-opacity:1" />
      <use
         height="100%"
         width="100%"
         xlink:href="#logo-F.Cu_pad-13"
         x="85700"
         y="-98900"
         id="use56"
         style="fill:#ffffff;fill-opacity:1;stroke:#ffffff;stroke-opacity:1" />
      <use
         height="100%"
         width="100%"
         xlink:href="#logo-F.Cu_pad-13"
         x="85452.297"
         y="-100700"
         id="use58"
         style="fill:#ffffff;fill-opacity:1;stroke:#ffffff;stroke-opacity:1" />
      <use
         height="100%"
         width="100%"
         xlink:href="#logo-F.Cu_pad-13"
         x="77947.703"
         y="-103900"
         id="use60"
         style="fill:#ffffff;fill-opacity:1;stroke:#ffffff;stroke-opacity:1" />
      <use
         height="100%"
         width="100%"
         xlink:href="#logo-F.Cu_pad-13"
         x="80200"
         y="-105952.3"
         id="use62"
         style="fill:#ffffff;fill-opacity:1;stroke:#ffffff;stroke-opacity:1" />
      <use
         height="100%"
         width="100%"
         xlink:href="#logo-F.Cu_pad-13"
         x="78400"
         y="-106300"
         id="use64"
         style="fill:#ffffff;fill-opacity:1;stroke:#ffffff;stroke-opacity:1" />
      <use
         height="100%"
         width="100%"
         xlink:href="#logo-F.Cu_pad-13"
         x="77700"
         y="-105700"
         id="use66"
         style="fill:#ffffff;fill-opacity:1;stroke:#ffffff;stroke-opacity:1" />
      <path
         style="fill:none;fill-opacity:1;stroke:#ffffff;stroke-width:250;stroke-opacity:1"
         inkscape:connector-curvature="0"
         d="m 82997.94,-99912.4 389.66,0 12.4,12.4 1612.4,1612.4 m -924.8,-2714.46 0,489.66 12.4,12.4 1612.4,1612.4 m -6400,-4710.34 0,-489.66 -1612.4,-1612.4 m 2702.06,1012.4 -389.66,0 -1612.4,-1612.4 m 3947.7,6847.7 852.3,852.3 m 1300,-3052.3 952.3,952.3 m -6139.9,-2247.7 -360.1,0 m -52.3,0 -952.3,-952.3 m 3104.6,-787.6 0,-360.1 m 0,-52.3 -852.3,-852.3 m 2147.7,6039.9 0,460.1"
         id="path68" />
    </g>
  </g>
</svg>
