<?xml version="1.0" encoding="UTF-8" standalone="no"?>
<!-- Generator: Adobe Illustrator 18.0.0, SVG Export Plug-In . SVG Version: 6.00 Build 0)  -->

<svg
   xmlns:dc="http://purl.org/dc/elements/1.1/"
   xmlns:cc="http://creativecommons.org/ns#"
   xmlns:rdf="http://www.w3.org/1999/02/22-rdf-syntax-ns#"
   xmlns:svg="http://www.w3.org/2000/svg"
   xmlns="http://www.w3.org/2000/svg"
   xmlns:sodipodi="http://sodipodi.sourceforge.net/DTD/sodipodi-0.dtd"
   xmlns:inkscape="http://www.inkscape.org/namespaces/inkscape"
   version="1.1"
   id="Capa_1"
   x="0px"
   y="0px"
   viewBox="0 0 310.861 310.861"
   style="enable-background:new 0 0 310.861 310.861;"
   xml:space="preserve"
   inkscape:version="0.91 r13725"
   sodipodi:docname="favicon.svg"><metadata
     id="metadata65"><rdf:RDF><cc:Work
         rdf:about=""><dc:format>image/svg+xml</dc:format><dc:type
           rdf:resource="http://purl.org/dc/dcmitype/StillImage" /><dc:title /></cc:Work></rdf:RDF></metadata><defs
     id="defs63" /><sodipodi:namedview
     pagecolor="#ffffff"
     bordercolor="#666666"
     borderopacity="1"
     objecttolerance="10"
     gridtolerance="10"
     guidetolerance="10"
     inkscape:pageopacity="0"
     inkscape:pageshadow="2"
     inkscape:window-width="1362"
     inkscape:window-height="907"
     id="namedview61"
     showgrid="false"
     inkscape:zoom="1.5183635"
     inkscape:cx="148.81298"
     inkscape:cy="81.054083"
     inkscape:window-x="1327"
     inkscape:window-y="1153"
     inkscape:window-maximized="0"
     inkscape:current-layer="layer1" /><g
     id="g31" /><g
     id="g33" /><g
     id="g35" /><g
     id="g37" /><g
     id="g39" /><g
     id="g41" /><g
     id="g43" /><g
     id="g45" /><g
     id="g47" /><g
     id="g49" /><g
     id="g51" /><g
     id="g53" /><g
     id="g55" /><g
     id="g57" /><g
     id="g59" /><g
     inkscape:groupmode="layer"
     id="layer1"
     inkscape:label="background"
     style="display:inline"><ellipse
       style="fill:#ffffff;stroke:#a00000;stroke-opacity:1;fill-opacity:1"
       id="path3366"
       cx="166.15135"
       cy="115.83907"
       rx="118.88768"
       ry="97.773582" /></g><g
     inkscape:groupmode="layer"
     id="layer2"
     inkscape:label="forground"
     style="display:inline"><g
       id="g3"><path
         style="clip-rule:evenodd;fill-rule:evenodd"
         d="m 172.774,117.379 -2.896,0 c -0.148,0 -0.294,0.035 -0.426,0.105 l -5.485,2.936 c -0.367,0.197 -0.552,0.617 -0.449,1.02 l 0.655,2.59 c 0.068,0.268 0.259,0.493 0.514,0.604 0.255,0.112 0.548,0.102 0.793,-0.03 l 3.111,-1.682 0,20.475 c 0,0.5 0.404,0.904 0.901,0.904 l 3.282,0 c 0.502,0 0.906,-0.404 0.906,-0.904 l 0,-25.114 c 0,-0.5 -0.404,-0.904 -0.906,-0.904 z"
         id="path5"
         inkscape:connector-curvature="0" /><path
         style="clip-rule:evenodd;fill-rule:evenodd"
         d="m 170.499,70.584 c -5.945,0 -9.639,5.349 -9.639,13.969 0.081,8.515 3.609,13.802 9.211,13.802 6.123,0 9.637,-5.161 9.637,-14.156 0,-8.525 -3.444,-13.615 -9.209,-13.615 z m -0.235,23.336 c -2.588,0 -4.195,-3.577 -4.195,-9.334 0,-5.815 1.66,-9.572 4.236,-9.572 3.65,0 4.195,5.852 4.195,9.337 0,3.575 -0.548,9.569 -4.236,9.569 z"
         id="path7"
         inkscape:connector-curvature="0" /><path
         style="clip-rule:evenodd;fill-rule:evenodd"
         d="m 190.318,116.954 c -5.941,0 -9.633,5.349 -9.633,13.969 0.078,8.516 3.607,13.802 9.21,13.802 6.121,0 9.633,-5.161 9.633,-14.156 0.001,-8.524 -3.443,-13.615 -9.21,-13.615 z m -0.229,23.338 c -2.593,0 -4.2,-3.577 -4.2,-9.336 0,-5.815 1.663,-9.569 4.236,-9.569 3.654,0 4.2,5.849 4.2,9.335 0,3.576 -0.553,9.57 -4.236,9.57 z"
         id="path9"
         inkscape:connector-curvature="0" /><path
         style="clip-rule:evenodd;fill-rule:evenodd"
         d="m 150.672,116.954 c -5.945,0 -9.636,5.349 -9.636,13.969 0.08,8.516 3.611,13.802 9.211,13.802 6.125,0 9.634,-5.161 9.634,-14.156 0,-8.524 -3.441,-13.615 -9.209,-13.615 z m -0.232,23.338 c -2.589,0 -4.197,-3.577 -4.197,-9.336 0,-5.815 1.664,-9.569 4.237,-9.569 3.652,0 4.197,5.849 4.197,9.335 0,3.576 -0.551,9.57 -4.237,9.57 z"
         id="path11"
         inkscape:connector-curvature="0" /><path
         style="clip-rule:evenodd;fill-rule:evenodd"
         d="m 113.306,71.006 -2.899,0 c -0.148,0 -0.292,0.036 -0.423,0.106 l -5.489,2.937 c -0.364,0.198 -0.549,0.617 -0.45,1.018 l 0.657,2.593 c 0.069,0.268 0.257,0.493 0.512,0.603 0.256,0.11 0.549,0.101 0.792,-0.032 l 3.113,-1.678 0,20.473 c 0,0.499 0.404,0.903 0.901,0.903 l 3.286,0 c 0.5,0 0.905,-0.404 0.905,-0.903 l 0,-25.114 c 0,-0.501 -0.404,-0.906 -0.905,-0.906 z"
         id="path13"
         inkscape:connector-curvature="0" /><path
         style="clip-rule:evenodd;fill-rule:evenodd"
         d="m 212.423,117.379 -2.9,0 c -0.149,0 -0.292,0.035 -0.423,0.105 l -5.488,2.936 c -0.364,0.197 -0.549,0.617 -0.45,1.02 l 0.657,2.59 c 0.07,0.268 0.257,0.493 0.512,0.604 0.256,0.112 0.549,0.102 0.792,-0.03 l 3.112,-1.681 0,20.474 c 0,0.5 0.404,0.904 0.901,0.904 l 3.287,0 c 0.499,0 0.903,-0.404 0.903,-0.904 l 0,-25.114 c 0,-0.5 -0.404,-0.904 -0.903,-0.904 z"
         id="path15"
         inkscape:connector-curvature="0" /><path
         style="clip-rule:evenodd;fill-rule:evenodd"
         d="m 133.128,71.006 -2.896,0 c -0.148,0 -0.296,0.036 -0.428,0.106 l -5.485,2.937 c -0.367,0.198 -0.553,0.617 -0.448,1.018 l 0.655,2.593 c 0.067,0.268 0.258,0.493 0.513,0.603 0.255,0.11 0.545,0.101 0.791,-0.032 l 3.112,-1.679 0,20.474 c 0,0.499 0.404,0.903 0.904,0.903 l 3.282,0 c 0.5,0 0.904,-0.404 0.904,-0.903 l 0,-25.114 c 0,-0.501 -0.405,-0.906 -0.904,-0.906 z"
         id="path17"
         inkscape:connector-curvature="0" /><path
         style="clip-rule:evenodd;fill-rule:evenodd"
         d="m 144.35,77.66 c 0.069,0.268 0.255,0.493 0.51,0.603 0.254,0.11 0.548,0.101 0.792,-0.032 l 3.113,-1.678 0,20.473 c 0,0.499 0.404,0.903 0.902,0.903 l 3.287,0 c 0.498,0 0.902,-0.404 0.902,-0.903 l 0,-25.114 c 0,-0.501 -0.404,-0.906 -0.902,-0.906 l -2.9,0 c -0.149,0 -0.294,0.036 -0.425,0.106 l -5.489,2.937 c -0.363,0.198 -0.549,0.617 -0.45,1.018 l 0.66,2.593 z"
         id="path19"
         inkscape:connector-curvature="0" /><path
         style="clip-rule:evenodd;fill-rule:evenodd"
         d="m 190.318,70.584 c -5.941,0 -9.633,5.349 -9.633,13.969 0.078,8.515 3.607,13.802 9.21,13.802 6.121,0 9.633,-5.161 9.633,-14.156 0.001,-8.525 -3.443,-13.615 -9.21,-13.615 z m -0.229,23.336 c -2.593,0 -4.2,-3.577 -4.2,-9.334 0,-5.815 1.663,-9.572 4.236,-9.572 3.654,0 4.2,5.852 4.2,9.337 0,3.575 -0.553,9.569 -4.236,9.569 z"
         id="path21"
         inkscape:connector-curvature="0" /><path
         style="clip-rule:evenodd;fill-rule:evenodd"
         d="m 232.244,117.379 -2.896,0 c -0.148,0 -0.296,0.035 -0.428,0.105 l -5.485,2.936 c -0.368,0.198 -0.554,0.617 -0.449,1.02 l 0.656,2.59 c 0.067,0.268 0.259,0.493 0.514,0.603 0.255,0.112 0.545,0.102 0.791,-0.03 l 3.111,-1.681 0,20.474 c 0,0.5 0.404,0.904 0.903,0.904 l 3.282,0 c 0.499,0 0.904,-0.404 0.904,-0.904 l 0,-25.114 c 0.001,-0.499 -0.403,-0.903 -0.903,-0.903 z"
         id="path23"
         inkscape:connector-curvature="0" /><path
         style="clip-rule:evenodd;fill-rule:evenodd"
         d="M 266.778,44.852 C 243.521,15.929 209.92,0 172.163,0 145.16,0 118.058,8.454 95.856,23.804 c -23.734,16.409 -40.35,39.265 -48.05,66.1 -3.04,10.603 -4.606,19.408 -5.99,27.178 -2.863,16.1 -4.935,27.73 -17.672,46.519 -3.378,4.983 -4.459,9.75 -3.21,14.166 1.975,6.987 8.668,10.009 14.048,12.436 1.795,0.812 4.802,2.168 5.48,2.92 3.234,4.052 2.951,15.274 2.701,25.176 -0.356,14.13 -0.725,28.741 6.29,39.287 9.811,14.745 24.984,14.905 37.175,15.034 14.303,0.151 20.83,0.221 22.319,16.157 0.03,0.393 0.091,2.096 0.145,3.599 0.383,10.504 0.549,11.93 1.087,13.463 1.061,3.01 3.904,5.023 7.096,5.023 l 134.139,0 c 2.588,0 4.994,-1.331 6.371,-3.524 1.377,-2.193 1.527,-4.94 0.402,-7.271 -16.91,-35.016 -3.066,-70.955 11.592,-109.005 8.908,-23.126 18.121,-47.038 20.214,-71.242 2.421,-28.007 -5.173,-52.53 -23.215,-74.968 z M 206.165,33.494 c 2.708,1.052 5.366,2.215 7.966,3.481 0.013,0.351 0.015,0.687 0.015,1.006 0,3.574 -0.549,9.568 -4.236,9.568 -2.587,0 -4.196,-3.577 -4.196,-9.334 -0.001,-1.786 0.158,-3.376 0.451,-4.721 z m -35.86,-4.851 c 3.65,0 4.195,5.852 4.195,9.337 0,3.574 -0.549,9.568 -4.236,9.568 -2.588,0 -4.195,-3.577 -4.195,-9.334 0,-5.814 1.66,-9.571 4.236,-9.571 z m -43.806,7.452 c 0.209,-0.113 0.41,-0.222 0.616,-0.334 2.311,-1.241 4.693,-2.352 7.127,-3.346 0.492,1.816 0.612,3.944 0.612,5.564 0,3.574 -0.551,9.568 -4.236,9.568 -2.59,0 -4.198,-3.577 -4.198,-9.334 0,-0.742 0.026,-1.449 0.079,-2.118 z m -19.173,89.069 c 0.724,-2.388 1.946,-3.776 3.508,-3.776 1.819,0 2.867,1.45 3.46,3.34 -2.21,0.08 -4.568,0.333 -6.968,0.436 z m 146.376,7.018 c -0.24,0.122 -0.481,0.218 -0.73,0.299 l 0,-14.198 c 0,-0.499 -0.404,-0.903 -0.901,-0.903 l -2.899,0 c -0.149,0 -0.296,0.035 -0.426,0.105 l -5.488,2.936 c -0.363,0.197 -0.549,0.617 -0.449,1.02 l 0.659,2.59 c 0.069,0.268 0.255,0.493 0.511,0.604 0.254,0.112 0.547,0.102 0.791,-0.03 l 3.112,-1.681 0,9.847 c -1.645,0.053 -3.016,0.492 -3.614,2.668 -1.097,4.841 -3.356,9.057 -6.777,12.638 -7.576,7.053 -31.778,5.607 -31.778,5.607 0,0 -1.588,1.142 -0.654,12.337 l -1.447,0.773 c -0.364,0.197 -0.549,0.616 -0.45,1.019 l 0.657,2.59 c 0.07,0.268 0.257,0.493 0.512,0.603 0.255,0.112 0.549,0.102 0.792,-0.03 l 0.416,-0.227 c 0.038,0.343 0.081,0.685 0.126,1.039 0.93,7.519 -4.868,9.794 -12.164,7.011 l 0,-14.144 c 0,-0.499 -0.403,-0.903 -0.901,-0.903 l -2.896,0 c -0.15,0 -0.299,0.036 -0.429,0.106 l -5.487,2.936 c -0.365,0.197 -0.55,0.616 -0.447,1.019 l 0.658,2.59 c 0.066,0.268 0.256,0.493 0.51,0.603 0.256,0.112 0.545,0.102 0.791,-0.03 l 3.111,-1.68 0,6.857 c -7.577,-4.967 -15.472,-14.784 -18.709,-29.29 -1.699,-7.613 -15.45,5.445 -24.106,2.927 -6.317,-1.833 -10.64,-2.787 -13.708,-5.487 l 1.241,0 c 0.5,0 0.904,-0.404 0.904,-0.904 l 0,-25.114 c 0,-0.499 -0.404,-0.903 -0.904,-0.903 l -2.896,0 c -0.148,0 -0.296,0.035 -0.428,0.105 l -5.485,2.936 c -0.367,0.197 -0.553,0.617 -0.448,1.02 l 0.655,2.59 c 0.067,0.268 0.258,0.493 0.513,0.604 0.255,0.112 0.545,0.102 0.791,-0.03 l 3.112,-1.681 0,17.481 c -0.916,-1.798 -1.67,-4.048 -2.31,-6.946 -1.171,-5.333 -3.693,-7.532 -6.967,-8.341 -1.199,-5.191 -4.24,-8.161 -8.638,-8.161 -4.436,0 -7.614,2.979 -8.944,8.071 -2.663,-0.319 -5.281,-1.116 -7.698,-2.825 l 0,-3.918 c 0,-0.499 -0.404,-0.903 -0.901,-0.903 l -2.898,0 c -0.149,0 -0.297,0.035 -0.428,0.105 l -0.23,0.123 c -5.123,-7.163 -8.148,-18.814 -7.691,-27.391 1.275,5.128 4.317,8.138 8.543,8.138 6.122,0 9.633,-5.161 9.633,-14.156 0,-8.525 -3.443,-13.616 -9.21,-13.616 -1.235,0 -2.366,0.243 -3.394,0.687 4.966,-10.767 11.986,-18.168 21.311,-24.733 l 0,4.116 c 0,0.499 0.404,0.903 0.901,0.903 l 3.286,0 c 0.5,0 0.905,-0.404 0.905,-0.903 l 0,-7.491 c 2.228,-1.398 4.571,-2.783 7.032,-4.172 0.291,8.032 3.762,12.993 9.183,12.993 6.121,0 9.636,-5.161 9.636,-14.156 0,-2.778 -0.372,-5.186 -1.064,-7.176 1.589,-0.532 3.197,-1.015 4.824,-1.454 l 0.529,2.09 c 0.069,0.268 0.255,0.493 0.51,0.604 0.254,0.111 0.548,0.1 0.792,-0.032 l 3.113,-1.679 0,20.473 c 0,0.499 0.404,0.903 0.902,0.903 l 3.287,0 c 0.498,0 0.902,-0.404 0.902,-0.903 l 0,-23.509 c 3.678,-0.535 7.409,-0.844 11.167,-0.94 -2.645,2.294 -4.163,6.46 -4.163,11.973 0.081,8.515 3.609,13.802 9.211,13.802 6.123,0 9.637,-5.161 9.637,-14.156 0,-5.133 -1.255,-9.007 -3.506,-11.286 2.642,0.22 5.282,0.543 7.912,0.966 l -0.327,0.171 c -0.365,0.198 -0.55,0.616 -0.447,1.017 l 0.658,2.592 c 0.066,0.268 0.256,0.493 0.51,0.604 0.256,0.111 0.545,0.1 0.791,-0.032 l 3.111,-1.679 0,20.474 c 0,0.499 0.405,0.903 0.906,0.903 l 3.283,0 c 0.497,0 0.901,-0.404 0.901,-0.903 l 0,-21.212 c 2.647,0.671 5.268,1.449 7.857,2.313 -0.551,1.86 -0.853,4.007 -0.853,6.426 0.08,8.515 3.612,13.802 9.211,13.802 5.695,0 9.124,-4.465 9.58,-12.32 3.031,1.689 5.954,3.536 8.763,5.521 l 0,5.47 c 0,0.499 0.404,0.903 0.903,0.903 l 3.282,0 c 0.499,0 0.904,-0.404 0.904,-0.903 l 0,-1.603 c 7.575,6.179 14.032,13.498 18.854,21.815 -0.694,-0.183 -1.429,-0.282 -2.213,-0.282 -5.943,0 -9.635,5.349 -9.635,13.969 0.079,8.515 3.611,13.802 9.211,13.802 5.211,0 8.521,-3.749 9.395,-10.405 4.305,16.072 6.379,38.394 -5.06,44.232 z M 86.773,84.586 c 0,-5.815 1.663,-9.572 4.236,-9.572 3.654,0 4.2,5.852 4.2,9.337 0,3.575 -0.553,9.569 -4.237,9.569 -2.591,0 -4.199,-3.577 -4.199,-9.334 z m 167.021,-0.234 c 0,3.575 -0.553,9.569 -4.237,9.569 -2.591,0 -4.199,-3.577 -4.199,-9.334 0,-5.815 1.665,-9.572 4.236,-9.572 3.655,-0.001 4.2,5.851 4.2,9.337 z"
         id="path25"
         inkscape:connector-curvature="0" /><path
         style="clip-rule:evenodd;fill-rule:evenodd"
         d="m 232.244,71.006 -2.896,0 c -0.148,0 -0.296,0.036 -0.428,0.106 l -5.485,2.937 c -0.368,0.198 -0.554,0.617 -0.449,1.018 l 0.656,2.593 c 0.067,0.268 0.259,0.493 0.514,0.603 0.255,0.11 0.545,0.101 0.791,-0.032 l 3.111,-1.678 0,20.473 c 0,0.499 0.404,0.903 0.903,0.903 l 3.282,0 c 0.499,0 0.904,-0.404 0.904,-0.903 l 0,-25.114 c 0.001,-0.501 -0.403,-0.906 -0.903,-0.906 z"
         id="path27"
         inkscape:connector-curvature="0" /><path
         style="clip-rule:evenodd;fill-rule:evenodd"
         d="m 210.143,70.584 c -5.945,0 -9.638,5.349 -9.638,13.969 0.08,8.515 3.612,13.802 9.211,13.802 6.126,0 9.636,-5.161 9.636,-14.156 0,-8.525 -3.441,-13.615 -9.209,-13.615 z m -0.234,23.336 c -2.587,0 -4.196,-3.577 -4.196,-9.334 0,-5.815 1.664,-9.572 4.236,-9.572 3.651,0 4.196,5.852 4.196,9.337 0,3.575 -0.548,9.569 -4.236,9.569 z"
         id="path29"
         inkscape:connector-curvature="0" /></g></g></svg>