<?xml version="1.0" encoding="UTF-8" standalone="no"?>
<!-- Created with Inkscape (http://www.inkscape.org/) -->

<svg
   xmlns:dc="http://purl.org/dc/elements/1.1/"
   xmlns:cc="http://creativecommons.org/ns#"
   xmlns:rdf="http://www.w3.org/1999/02/22-rdf-syntax-ns#"
   xmlns:svg="http://www.w3.org/2000/svg"
   xmlns="http://www.w3.org/2000/svg"
   xmlns:sodipodi="http://sodipodi.sourceforge.net/DTD/sodipodi-0.dtd"
   xmlns:inkscape="http://www.inkscape.org/namespaces/inkscape"
   width="37.202179mm"
   height="10.047112mm"
   viewBox="0 0 131.81874 35.600001"
   id="svg2"
   version="1.1"
   inkscape:version="0.91 r13725"
   sodipodi:docname="memcpy.io_logo.svg">
  <defs
     id="defs4" />
  <sodipodi:namedview
     id="base"
     pagecolor="#ffffff"
     bordercolor="#666666"
     borderopacity="1.0"
     inkscape:pageopacity="0.0"
     inkscape:pageshadow="2"
     inkscape:zoom="1.979899"
     inkscape:cx="-31.771887"
     inkscape:cy="15.79953"
     inkscape:document-units="px"
     inkscape:current-layer="text3336"
     showgrid="false"
     inkscape:window-width="2560"
     inkscape:window-height="1377"
     inkscape:window-x="-8"
     inkscape:window-y="-8"
     inkscape:window-maximized="1"
     fit-margin-top="0"
     fit-margin-left="0"
     fit-margin-right="0"
     fit-margin-bottom="0" />
  <metadata
     id="metadata7">
    <rdf:RDF>
      <cc:Work
         rdf:about="">
        <dc:format>image/svg+xml</dc:format>
        <dc:type
           rdf:resource="http://purl.org/dc/dcmitype/StillImage" />
        <dc:title></dc:title>
      </cc:Work>
    </rdf:RDF>
  </metadata>
  <g
     inkscape:label="Layer 1"
     inkscape:groupmode="layer"
     id="layer1"
     transform="translate(157.8,-203.8022)">
    <g
       style="font-style:normal;font-variant:normal;font-weight:300;font-stretch:normal;font-size:40px;line-height:125%;font-family:'Helvetica Neue';-inkscape-font-specification:'Helvetica Neue Light';letter-spacing:0px;word-spacing:0px;fill:#000000;fill-opacity:1;stroke:none;stroke-width:1px;stroke-linecap:butt;stroke-linejoin:miter;stroke-opacity:1"
       id="text3336">
      <path
         d="m -157.8,232.3622 0.8,0 0,-12.84 c 0,-5.32 2.32,-7.56 5.04,-7.56 2.84,0 3.8,2.24 3.8,4.84 l 0,15.56 0.8,0 0,-13.56 c 0,-3.96 1.8,-6.84 5,-6.84 1.72,0 3.84,1.12 3.84,4.68 l 0,15.72 0.8,0 0,-15.72 c 0,-2.96 -1.4,-5.4 -4.84,-5.4 -2.88,0 -4.44,2.32 -4.88,4.04 l -0.08,0 c -0.16,-1.32 -0.92,-4.04 -4.48,-4.04 -2.6,0 -4.32,1.8 -4.92,3.8 l -0.08,0 0,-3.32 -0.8,0 0,20.64 z"
         style=""
         id="path3341" />
      <path
         d="m -121.26688,221.6022 0,-1.44 c 0,-4.68 -1.43999,-8.92 -6.2,-8.92 -4.55999,0 -6.59999,3.88 -6.59999,10.2 0,7.52 1.96,11.4 6.59999,11.4 3.56,0 5.84001,-3.12 6.04001,-7.2 l -0.80001,0 c -0.11999,2.48 -1.36,6.48 -5.24,6.48 -4.47999,0 -5.79999,-4.36 -5.79999,-10.52 l 11.99999,0 z m -11.99999,-0.72 c 0.08,-4.72 1.4,-8.92 5.79999,-8.92 4.44,0 5.40001,4.36 5.40001,7.52 l 0,1.4 -11.2,0 z"
         style=""
         id="path3343" />
      <path
         d="m -117.8,232.3622 0.8,0 0,-12.84 c 0,-5.32 2.32,-7.56 5.04,-7.56 2.84,0 3.8,2.24 3.8,4.84 l 0,15.56 0.8,0 0,-13.56 c 0,-3.96 1.8,-6.84 5,-6.84 1.72,0 3.84,1.12 3.84,4.68 l 0,15.72 0.8,0 0,-15.72 c 0,-2.96 -1.4,-5.4 -4.84,-5.4 -2.88,0 -4.44,2.32 -4.88,4.04 l -0.08,0 c -0.16,-1.32 -0.92,-4.04 -4.48,-4.04 -2.6,0 -4.32,1.8 -4.92,3.8 l -0.08,0 0,-3.32 -0.8,0 0,20.64 z"
         style=""
         id="path3345" />
      <path
         d="m -81.626875,217.4422 c 0,-3.24 -2.32,-6.2 -5.84,-6.2 -4.56,0 -6.6,3.88 -6.6,10.2 0,7.52 1.96,11.4 6.6,11.4 3.56,0 5.84,-3.12 6.04,-7.2 l -0.8,0 c -0.12,2.48 -1.36,6.48 -5.24,6.48 -3.28,0 -5.8,-2.4 -5.8,-10.08 0,-7.76 2.52,-10.08 5.8,-10.08 3.24,0 4.96,2.72 5.04,5.48 l 0.8,0 z"
         style=""
         id="path3347" />
      <path
         d="m -78.74125,239.4022 0.8,0 0,-11.2 0.12,0 c 0.8,2.4 2.32,4.64 5.44,4.64 4.88,0 6.4,-4.52 6.4,-10.6 0,-7.8 -2.32,-11 -6.4,-11 -2.68,0 -4.6,1.8 -5.44,4.92 l -0.12,0 0,-4.44 -0.8,0 0,27.68 z m 0.8,-17.36 c 0,-6.8 2.2,-10.08 5.6,-10.08 4.56,0 5.56,5 5.56,10.44 0,5.36 -1.2,9.72 -5.6,9.72 -3.36,0 -5.56,-3.16 -5.56,-10.08 z"
         style=""
         id="path3349" />
      <path
         d="m -58.41125,232.5222 c -0.68,2.8 -1.48,4.84 -2.08,5.4 -0.56,0.52 -1.36,0.76 -2.24,0.76 -0.44,0 -0.88,-0.04 -1.2,-0.08 l 0,0.72 c 0.24,0.04 0.64,0.08 1.08,0.08 2.84,0 3.68,-1.32 5,-6.2 l 5.84,-21.48 -0.76,0 -5.24,19.6 -0.08,0 0.04,0.04 -5.6,-19.64 -0.8,0 6.04,20.8 z"
         style=""
         id="path3351" />
      <path
         d="m -51.225,232.3622 0.8,0 0,-3.92 -0.8,0 0,3.92 z"
         style=""
         id="path3353" />
      <path
         d="m -43.815625,232.3622 0.8,0 0,-20.64 -0.8,0 0,20.64 z m 0,-24.64 0.8,0 0,-3.92 -0.8,0 0,3.92 z"
         style=""
         id="path3355" />
      <path
         d="m -32.62125,232.8422 c 3.72,0 6.64,-2.36 6.64,-10.8 0,-8.44 -2.92,-10.8 -6.64,-10.8 -4.56,0 -6.68,3.96 -6.68,10.8 0,6.76 2.04,10.8 6.68,10.8 z m -5.88,-10.8 c 0,-7.72 2.56,-10.08 5.88,-10.08 4.12,0 5.84,3.4 5.84,10.08 0,6.68 -1.72,10.08 -5.84,10.08 -3.28,0 -5.88,-2.4 -5.88,-10.08 z"
         style=""
         id="path3357" />
    </g>
  </g>
</svg>
