<?xml version="1.0" encoding="utf-8" ?>
<svg baseProfile="full" height="225" version="1.1" width="1000" xmlns="http://www.w3.org/2000/svg" xmlns:ev="http://www.w3.org/2001/xml-events" xmlns:xlink="http://www.w3.org/1999/xlink"><defs /><line stroke="#43c200" stroke-linecap="round" stroke-width="5.6" x1="443.3333333333333" x2="443.3333333333333" y1="133.5" y2="150" /><g transform="rotate(-25, 443.3333333333333, 127)"><text dominant-baseline="middle" style="fill: #3c3c3e; font-size: 21px; font-weight: bold; font-family: Liberation Sans;" text-anchor="start" x="443.3333333333333" y="127">i.MX8 LPI2C support</text></g><line stroke="#43c200" stroke-linecap="round" stroke-width="5.6" x1="736.6666666666666" x2="736.6666666666666" y1="133.5" y2="150" /><g transform="rotate(-25, 736.6666666666666, 127)"><text dominant-baseline="middle" style="fill: #3c3c3e; font-size: 21px; font-weight: bold; font-family: Liberation Sans;" text-anchor="start" x="736.6666666666666" y="127">i.MX8 SATA support</text></g><line stroke="#5c3dcc" stroke-linecap="round" stroke-width="8" x1="40.0" x2="920" y1="150" y2="150" /><line stroke="#5c3dcc" stroke-linecap="round" stroke-width="8" x1="40.0" x2="40.0" y1="135" y2="165" /><line stroke="#5c3dcc" stroke-linecap="round" stroke-width="8" x1="920" x2="920" y1="135" y2="165" /><g transform="rotate(-90, 20.0, 173)"><text dominant-baseline="middle" style="fill: #3c3c3e; font-size: 21px; font-weight: bold; font-family: Liberation Sans;" text-anchor="start" x="20.0" y="173">2015</text></g><g transform="rotate(-90, 940, 173)"><text dominant-baseline="middle" style="fill: #3c3c3e; font-size: 21px; font-weight: bold; font-family: Liberation Sans;" text-anchor="start" x="940" y="173">2019</text></g><line stroke="#5c3dcc" stroke-linecap="round" stroke-width="5.6" x1="40.0" x2="40.0" y1="139.5" y2="160.5" /><line stroke="#5c3dcc" stroke-linecap="round" stroke-width="5.6" x1="260.0" x2="260.0" y1="139.5" y2="160.5" /><line stroke="#5c3dcc" stroke-linecap="round" stroke-width="5.6" x1="480.0" x2="480.0" y1="139.5" y2="160.5" /><line stroke="#5c3dcc" stroke-linecap="round" stroke-width="5.6" x1="700.0" x2="700.0" y1="139.5" y2="160.5" /><g transform="rotate(0, 35.0, 202.5)"><text dominant-baseline="middle" style="fill: #3c3c3e; font-size: 28px; font-weight: bold; font-family: Liberation Sans;" text-anchor="start" x="35.0" y="202.5">Kernel</text></g></svg>