<?xml version="1.0" encoding="utf-8" ?>
<svg baseProfile="full" height="225" version="1.1" width="1000" xmlns="http://www.w3.org/2000/svg" xmlns:ev="http://www.w3.org/2001/xml-events" xmlns:xlink="http://www.w3.org/1999/xlink"><defs /><line stroke="#e3673e" stroke-linecap="round" stroke-width="5.6" x1="700.0" x2="700.0" y1="133.5" y2="150" /><g transform="rotate(-25, 700.0, 127)"><text dominant-baseline="middle" style="fill: #3c3c3e; font-size: 21px; font-weight: bold; font-family: Liberation Sans;" text-anchor="start" x="700.0" y="127">Initial support</text></g><line stroke="#e3673e" stroke-linecap="round" stroke-width="5.6" x1="710.0" x2="710.0" y1="133.5" y2="150" /><g transform="rotate(-25, 750.0, 127)"><text dominant-baseline="middle" style="fill: #3c3c3e; font-size: 21px; font-weight: bold; font-family: Liberation Sans;" text-anchor="start" x="750.0" y="127">Network Support</text></g><line stroke="#e3673e" stroke-linecap="round" stroke-width="5.6" x1="720.0" x2="720.0" y1="133.5" y2="150" /><g transform="rotate(-25, 800.0, 127)"><text dominant-baseline="middle" style="fill: #3c3c3e; font-size: 21px; font-weight: bold; font-family: Liberation Sans;" text-anchor="start" x="800.0" y="127">GPIO Support</text></g><line stroke="#5c3dcc" stroke-linecap="round" stroke-width="8" x1="40.0" x2="920" y1="150" y2="150" /><line stroke="#5c3dcc" stroke-linecap="round" stroke-width="8" x1="40.0" x2="40.0" y1="135" y2="165" /><line stroke="#5c3dcc" stroke-linecap="round" stroke-width="8" x1="920" x2="920" y1="135" y2="165" /><g transform="rotate(-90, 20.0, 173)"><text dominant-baseline="middle" style="fill: #3c3c3e; font-size: 21px; font-weight: bold; font-family: Liberation Sans;" text-anchor="start" x="20.0" y="173">2015</text></g><g transform="rotate(-90, 940, 173)"><text dominant-baseline="middle" style="fill: #3c3c3e; font-size: 21px; font-weight: bold; font-family: Liberation Sans;" text-anchor="start" x="940" y="173">2019</text></g><line stroke="#5c3dcc" stroke-linecap="round" stroke-width="5.6" x1="40.0" x2="40.0" y1="139.5" y2="160.5" /><line stroke="#5c3dcc" stroke-linecap="round" stroke-width="5.6" x1="260.0" x2="260.0" y1="139.5" y2="160.5" /><line stroke="#5c3dcc" stroke-linecap="round" stroke-width="5.6" x1="480.0" x2="480.0" y1="139.5" y2="160.5" /><line stroke="#5c3dcc" stroke-linecap="round" stroke-width="5.6" x1="700.0" x2="700.0" y1="139.5" y2="160.5" /><g transform="rotate(0, 35.0, 202.5)"><text dominant-baseline="middle" style="fill: #3c3c3e; font-size: 28px; font-weight: bold; font-family: Liberation Sans;" text-anchor="start" x="35.0" y="202.5">i.MX 8 U-Boot</text></g></svg>